<?xml version="1.0" encoding="utf-8"?>
<!-- Generator: Adobe Illustrator 24.1.1, SVG Export Plug-In . SVG Version: 6.00 Build 0)  -->
<svg version="1.1" id="Livello_1" xmlns="http://www.w3.org/2000/svg" xmlns:xlink="http://www.w3.org/1999/xlink" x="0px" y="0px"
	 viewBox="0 0 703 703" style="enable-background:new 0 0 703 703;" xml:space="preserve">
<style type="text/css">
	.st0{fill:url(#SVGID_1_);}
	.st1{fill:url(#SVGID_2_);}
	.st2{fill:#FFFFFF;}
</style>
<g>
	<image style="overflow:visible;opacity:0.75;" width="703" height="703" xlink:href="74996444.png" >
	</image>
	<g>
		<linearGradient id="SVGID_1_" gradientUnits="userSpaceOnUse" x1="130.511" y1="130.511" x2="572.5677" y2="572.5677">
			<stop  offset="0" style="stop-color:#FF3182"/>
			<stop  offset="1" style="stop-color:#843BCB"/>
		</linearGradient>
		<path class="st0" d="M462.8,618H240.3C154.5,618,85,548.5,85,462.8V240.3C85,154.5,154.5,85,240.3,85h222.5
			C548.5,85,618,154.5,618,240.3v222.5C618,548.5,548.5,618,462.8,618z"/>
	</g>
</g>
<linearGradient id="SVGID_2_" gradientUnits="userSpaceOnUse" x1="130.511" y1="572.5677" x2="572.5677" y2="130.511">
	<stop  offset="0" style="stop-color:#000000;stop-opacity:0.3"/>
	<stop  offset="0.5" style="stop-color:#BFBFBF;stop-opacity:0"/>
	<stop  offset="1" style="stop-color:#FFFFFF;stop-opacity:0.3"/>
</linearGradient>
<path class="st1" d="M462.8,618H240.3C154.5,618,85,548.5,85,462.8V240.3C85,154.5,154.5,85,240.3,85h222.5
	C548.5,85,618,154.5,618,240.3v222.5C618,548.5,548.5,618,462.8,618z"/>
<g>
	<path class="st2" d="M151,293c0.6-2.2,1.1-4.4,1.9-6.6c2-5.5,6.2-8.5,11.9-9.4c2.4-0.4,4.9,0.5,5.9,2.9c0.9,2.1-1.5,3-2.8,4.1
		c-3.1,2.3-4.1,5.4-4,9.1c1.1,27.1,11.9,50.7,25.6,73.8c8-10.9,15.3-22,24.7-31.2c1.6-1.5,0.7-3.5,0.8-5.2
		c0.5-7.3,2.4-13.8,9.7-17.3c3.3-1.6,6.3-1.4,9.4,0.6c6.7,4.2,11.6,9.9,14.9,17c1.2,2.7,2.3,5.4,3.7,8.4
		c6.9-5.5,12.5-11.8,17.8-18.4c1.2-1.5,0.8-3.2,0.9-4.8c0.2-3.7,0.7-7.3,3.1-10.3c1.9-2.4,4.5-3.5,7.5-2.7c2.7,0.7,3.1,3.1,3.4,5.5
		c0.8,7.2,1.7,14.4,3,21.6c3.8-11.7,8.6-22.7,16.6-32.1c1.6-1.9,3.3-3.8,5.3-5.3c7.3-5.3,13.2-3,14.7,5.9c1.2,7.2,2.2,14.5,3.2,21.7
		c0.8,6.1,1.8,12.2,4,18c1.2,3,2.6,3.6,4.7,0.8c5.6-7.2,11.8-14.5,15-22.8c7.9-20.8,26.2-27.4,44-35.2c2-0.9,4.6-0.6,6.9-0.4
		c5.7,0.4,8.4,3.7,7.7,9.4c-0.6,5.1-3.1,9.4-6.3,13.3c-3.3,4.1-6.6,8.3-10.2,12.8c4.7,1.7,9.2,3.3,13.3,5.7
		c4.3,2.5,7.8,5.8,9.8,10.3c1,2.2,1.8,2.6,3.9,1.2c8.3-5.2,16.4-10.7,25.7-14.1c1.6-0.6,1.8-2.2,2.6-3.5c2.6-4.2,5.2-8.5,7.9-12.7
		c2.2-3.5,5.2-4.1,8.5-2c3.4,2.1,1.2,4.7,0.1,6.9c-7.8,15.5-14.2,31.4-17.1,48.6c-0.5,2.9-0.7,5.8-0.3,8.9c2.4-0.3,3.9-2,5.6-3.2
		c11-8.4,21.6-17.1,31-27.3c5.5-5.9,11.7-10.8,18.7-14.8c3-1.7,6.2-3.1,9.8-3.5c3.9-0.4,7.3,0.5,9.5,4c2.3,3.6-0.2,6.4-2.2,8.9
		c-7.1,9-16.5,14.8-27.1,18.9c-9.2,3.6-15.3,13.1-14.8,22.7c0.3,6.1,3,8.4,9.1,7.4c4.3-0.7,8.3-2.5,12.1-4.5
		c13.2-7.1,26.9-13,41-18.2c3.3-1.2,6.6-2.3,10-0.4c0,1,0,2,0,3c-4.7,0.4-8.7,2.9-13,4.6c-14.4,5.7-27.6,13.9-41.9,19.9
		c-4.3,1.8-8.7,3.5-13.4,3.8c-7.1,0.5-11.4-2.5-13.2-9.5c-1.8-7.1-0.9-14.2,2-22.1c-5.6,4.8-10.3,9-15.1,13c-2,1.7-4.2,3.3-6.5,4.6
		c-6.9,4.1-12.4,1-13-7.2c-0.8-10.2,2-19.8,4.4-29.5c0.8-3,1.8-6,3-9.8c-8.3,4.4-15.3,9.5-22.4,14.4c-0.7,0.5-0.9,1.2-1,2.1
		c-1.8,20.4-11,38.1-20.2,55.7c-6.1,11.6-13.1,22.7-19.8,34c-2.7,4.6-6.1,8.7-10.6,11.8c-6,4.1-10.2,2.6-11.7-4.4
		c-2.3-10.5,0.3-20.5,3.9-30.2c8.5-22.9,23.2-41.7,39.7-59.2c9.8-10.3,8.4-17.3-4.7-22.9c-4-1.7-8.1-3.1-12-5
		c-4-1.9-5.3-5.1-3.8-9.5c2.3-6.7,6.2-12.4,10.4-18.9c-13.1,2.7-21.9,10.1-30.3,19.4c-9.1,10-14.2,22.1-21.4,33
		c-5.9,9-12.5,8.7-17.6-0.8c-4.6-8.5-5.6-18-7-27.4c-0.9-6.1-1.7-12.2-2.6-18.8c-3.5,1.9-5.6,4.8-7.6,7.7
		c-8.7,13-13.2,27.4-14.6,42.9c-0.1,1.7,0,3.4-0.3,5c-0.5,2.4-1.9,4.4-4.4,4.8c-2.4,0.5-4.2-0.9-5.4-2.9c-2.3-3.7-2.9-8.1-4.1-12.2
		c-1.6-5.7-2.9-11.4-4.4-17.4c-4.9,5.4-9.7,10.5-14.2,15.7c-2.8,3.3-3.2,7.2-2,11.3c1.6,5.5,1.9,11.1,1.7,16.8
		c-0.2,4.6-1.5,8.7-6,10.7c-4.8,2.1-9.2,0.6-12.8-3.1c-9.2-9.5-16.1-20.7-21.3-32.8c-0.5-1.1-0.8-2.2-1.5-3.9
		c-8.1,9.9-15.9,19.4-21.4,30.5c-1.8,3.5,1.1,5.3,3.6,6.5c3.9,1.9,8,3.3,11.9,5c13.9,6,22.4,17.4,29.8,29.8
		c3.8,6.4,6.7,13.3,8.9,20.5c1,3.1,2.5,6.7-0.8,9.2c-3.7,2.7-7,0.3-9.9-2c-10.4-8.6-19.7-18.5-28.3-28.9
		c-19.7-24.1-38.5-48.8-50.6-77.8c-3.5-8.4-5.2-17.3-8.6-25.7C151,304.4,151,298.7,151,293z M407.9,353c-2.7,2.8-4.7,4.9-6.7,7.1
		c-15.2,16.7-28.5,34.6-35.6,56.4c-1.9,5.7-3.1,11.6-2.8,17.6c0.1,1.6,0.1,3.6,2,4.2c1.8,0.6,3.2-0.6,4.4-1.8
		c2.2-2.1,3.7-4.7,5.1-7.3c6.2-11.7,12.7-23.3,18.4-35.2C398.8,381.2,405.9,368.6,407.9,353z M205.3,391.1
		c10.7,16.9,21.8,33.6,37.5,46.4C237.5,416.3,225.2,400.6,205.3,391.1z M229.2,320.7c-1,9.7-0.2,18.5,3.7,26.8
		c1.6,3.4,4.2,3.4,7.1,2.6c3.1-0.9,4.9-2.9,4-6.3C241.6,334.7,237.8,326.6,229.2,320.7z M248.7,374.5c0.5-5,1-9.2-0.1-13.4
		c-0.9-3.3-2.6-4.8-6.2-3.3c-3.2,1.3-4.3,3-2.5,6.5C241.8,368.2,244.3,371.5,248.7,374.5z M514.8,326c-10.7,3.8-17.9,9.7-21.2,17.1
		C501.5,338.8,509.4,334.7,514.8,326z"/>
	<path class="st2" d="M457.4,406.8c-21.5,35.2-51.1,56.2-91.1,60c-47.3,4.5-83.9-14.9-111.3-53.4c8.2-3,8.2-3,12.9,3
		c45.7,58.9,133.9,56.6,176.2-4.8C447.5,406.5,452.1,408.8,457.4,406.8z"/>
	<path class="st2" d="M533.8,518.1c-8.5-2.8-15.1-6.2-21.1-11.1c-18.6-15.1-37.3-30-56.2-44.7c-5.6-4.4-9.4-10.1-13.9-16.6
		c6.9,2.9,13.1,4.9,18.4,9.2c20.4,16.5,41.1,32.8,61.7,49.1C527.2,507.6,529.7,512.8,533.8,518.1z"/>
	<path class="st2" d="M277.9,454.9c-4.3,6.2-7.1,11.5-11.9,15.5c-20.4,16.7-40.6,33.5-60.8,50.3c-4.7,3.9-10.4,5.4-15.9,7.7
		c3.4-5.5,6.4-11,11.6-15.2c20.4-16.6,40.6-33.5,60.9-50.2C266.1,459.2,271.6,457.8,277.9,454.9z"/>
	<path class="st2" d="M364.5,480.4c2.2,6.5,4.5,11.8,4.5,18c0.1,23.7,0.5,47.3,0.9,71c0.1,6-2,11.3-4.1,17.5
		c-2.7-6.9-4.6-12.9-4.6-19.7c0-23.7-0.5-47.3-0.7-71C360.4,490.9,362.8,486.3,364.5,480.4z"/>
	<path class="st2" d="M451.5,283.4c-7.9,0.3-13.1-3.7-18.5-9.3c-50.3-52-134.1-42.8-172,18.6c-1.7,2.7-7.3,3.6-9.4,1.4
		c-1.6-1.7,0.5-2.7,1.1-3.8c15.3-25.8,37.2-43.5,65.6-52.9C367.6,221.3,424.8,241.2,451.5,283.4z"/>
	<path class="st2" d="M180.1,186.9c7.1,2.9,13.3,5.1,18.7,9.5c20.3,16.4,40.8,32.5,61.2,48.8c4.5,3.6,7,8.8,11.3,14.3
		c-7-2.9-12.9-4.6-17.9-8.6c-19.2-15.4-38.4-30.8-57.8-45.9C189.5,200.2,184.6,194.5,180.1,186.9z"/>
	<path class="st2" d="M525.2,176.3c-4.4,6.3-7.4,11.7-12.5,15.7c-19.9,16.2-39.6,32.5-59.3,49c-4.8,4.1-10.5,6-17.3,8.9
		c3.5-5.8,6.1-10.6,10.5-14.2c20.8-17.2,41.6-34.4,62.4-51.6C513.4,180.5,518.8,178.9,525.2,176.3z"/>
	<path class="st2" d="M349.2,223.7c-2-5.1-4.5-9.9-4.5-15.5c-0.2-24.8-0.5-49.6-0.9-74.4c-0.1-5.3,2.4-9.9,3.8-16
		c2.3,5.6,4.5,10.2,4.5,15.4c0.4,25.1,0.6,50.3,1,75.4C353.2,214,350.4,218.6,349.2,223.7z"/>
	<path class="st2" d="M481.8,272.6c-2.6-0.6-6.3-0.4-6.5-4.3c-0.1-2.5,2.1-3.4,4.5-3.4c3.1,0.1,6.3,0.6,6.7,4.3
		C486.8,271.6,484.3,272.4,481.8,272.6z"/>
</g>
</svg>
